<svg aria-hidden="true" style="position: absolute; width: 0; height: 0; overflow: hidden;" version="1.1" xmlns="http://www.w3.org/2000/svg" xmlns:xlink="http://www.w3.org/1999/xlink">
<defs>
<symbol id="icon-inbox" viewBox="0 0 16 16">
<title>inbox</title>
<path d="M15 0h-14c-0.553 0-1 0.447-1 1v14c0 0.553 0.447 1 1 1h14c0.553 0 1-0.447 1-1v-14c0-0.553-0.447-1-1-1zM14 11h-3v3h-6v-3h-3v-9h12v9zM4 7h8v2h-8zM4 4h8v2h-8z"></path>
</symbol>
<symbol id="icon-stats" viewBox="0 0 16 16">
<title>stats</title>
<path d="M15 0h-14c-0.552 0-1 0.448-1 1v10c0 0.552 0.448 1 1 1h4l-2 4h0.5l3.6-4h1.8l3.6 4h0.5l-2-4h4c0.552 0 1-0.448 1-1v-10c0-0.552-0.448-1-1-1zM15 10.5c0 0.277-0.223 0.5-0.5 0.5h-13c-0.276 0-0.5-0.223-0.5-0.5v-9c0-0.276 0.224-0.5 0.5-0.5h13c0.277 0 0.5 0.224 0.5 0.5v9zM10.439 7.816l-2.261-5.814-2.469 4.645-1.378-1.417-2.332 1.453 0.658 0.379 1.494-0.931 1.803 1.856 2.087-3.926 2.308 5.939 1.969-4.144 0.802 1.707 0.88-0.147-1.677-3.566-1.884 3.968z"></path>
</symbol>
<symbol id="icon-user-tie" viewBox="0 0 16 16">
<title>user-tie</title>
<path d="M5 3c0-1.657 1.343-3 3-3s3 1.343 3 3c0 1.657-1.343 3-3 3s-3-1.343-3-3zM12.001 7h-0.553l-3.111 6.316 1.163-5.816-1.5-1.5-1.5 1.5 1.163 5.816-3.111-6.316h-0.554c-1.999 0-1.999 1.344-1.999 3v5h12v-5c0-1.656 0-3-1.999-3z"></path>
</symbol>
<symbol id="icon-wrench" viewBox="0 0 16 16">
<title>wrench</title>
<path d="M15.671 12.779l-7.196-6.168c0.335-0.63 0.525-1.348 0.525-2.111 0-2.485-2.015-4.5-4.5-4.5-0.455 0-0.893 0.068-1.307 0.193l2.6 2.6c0.389 0.389 0.389 1.025 0 1.414l-1.586 1.586c-0.389 0.389-1.025 0.389-1.414 0l-2.6-2.6c-0.125 0.414-0.193 0.852-0.193 1.307 0 2.485 2.015 4.5 4.5 4.5 0.763 0 1.482-0.19 2.111-0.525l6.168 7.196c0.358 0.418 0.969 0.441 1.358 0.052l1.586-1.586c0.389-0.389 0.365-1-0.052-1.358z"></path>
</symbol>
<symbol id="icon-cogs" viewBox="0 0 16 16">
<title>cogs</title>
<path d="M5.683 11.282l0.645-0.903-0.707-0.707-0.903 0.645c-0.168-0.094-0.347-0.168-0.535-0.222l-0.183-1.095h-1l-0.183 1.095c-0.188 0.053-0.368 0.128-0.535 0.222l-0.903-0.645-0.707 0.707 0.645 0.903c-0.094 0.168-0.168 0.347-0.222 0.535l-1.095 0.183v1l1.095 0.183c0.053 0.188 0.128 0.368 0.222 0.535l-0.645 0.903 0.707 0.707 0.903-0.645c0.168 0.094 0.347 0.168 0.535 0.222l0.183 1.095h1l0.183-1.095c0.188-0.053 0.368-0.128 0.535-0.222l0.903 0.645 0.707-0.707-0.645-0.903c0.094-0.168 0.168-0.347 0.222-0.535l1.095-0.182v-1l-1.095-0.183c-0.053-0.188-0.128-0.368-0.222-0.535zM3.5 13.5c-0.552 0-1-0.448-1-1s0.448-1 1-1 1 0.448 1 1-0.448 1-1 1zM16 6v-1l-1.053-0.191c-0.019-0.126-0.044-0.25-0.074-0.372l0.899-0.58-0.383-0.924-1.046 0.226c-0.066-0.108-0.136-0.213-0.211-0.315l0.609-0.88-0.707-0.707-0.88 0.609c-0.102-0.074-0.207-0.145-0.315-0.211l0.226-1.046-0.924-0.383-0.58 0.899c-0.122-0.030-0.246-0.054-0.372-0.074l-0.191-1.053h-1l-0.191 1.053c-0.126 0.019-0.25 0.044-0.372 0.074l-0.58-0.899-0.924 0.383 0.226 1.046c-0.108 0.066-0.213 0.136-0.315 0.211l-0.88-0.609-0.707 0.707 0.609 0.88c-0.074 0.102-0.145 0.207-0.211 0.315l-1.046-0.226-0.383 0.924 0.899 0.58c-0.030 0.122-0.054 0.246-0.074 0.372l-1.053 0.191v1l1.053 0.191c0.019 0.126 0.044 0.25 0.074 0.372l-0.899 0.58 0.383 0.924 1.046-0.226c0.066 0.108 0.136 0.213 0.211 0.315l-0.609 0.88 0.707 0.707 0.88-0.609c0.102 0.074 0.207 0.145 0.315 0.211l-0.226 1.046 0.924 0.383 0.58-0.899c0.122 0.030 0.246 0.054 0.372 0.074l0.191 1.053h1l0.191-1.053c0.126-0.019 0.25-0.044 0.372-0.074l0.58 0.899 0.924-0.383-0.226-1.046c0.108-0.066 0.213-0.136 0.315-0.211l0.88 0.609 0.707-0.707-0.609-0.88c0.074-0.102 0.145-0.207 0.211-0.315l1.046 0.226 0.383-0.924-0.899-0.58c0.030-0.122 0.054-0.246 0.074-0.372l1.053-0.191zM10.5 7.675c-1.201 0-2.175-0.974-2.175-2.175s0.974-2.175 2.175-2.175 2.175 0.974 2.175 2.175c0 1.201-0.974 2.175-2.175 2.175z"></path>
</symbol>
<symbol id="icon-chevron-right" viewBox="0 0 16 16">
<title>chevron-right</title>
<path d="M7.33 3.613c0.334 0.326 3.602 3.756 3.602 3.756 0.178 0.175 0.268 0.403 0.268 0.631s-0.090 0.456-0.268 0.63c0 0-3.267 3.431-3.602 3.756-0.334 0.326-0.936 0.349-1.292 0-0.357-0.347-0.385-0.833 0-1.259l2.998-3.126-2.998-3.126c-0.385-0.426-0.357-0.913 0-1.261s0.958-0.327 1.292 0z"></path>
</symbol>
<symbol id="icon-load-balancer" viewBox="0 0 16 16">
<title>load-balancer</title>
<path d="M13.6 9.6h-4.8v3.2h0.8v3.2h-3.2v-3.2h0.8v-3.2h-4.8v3.2h0.8v3.2h-3.2v-3.2h0.8v-3.2c0-0.884 0.716-1.6 1.6-1.6v0h4.8v-3.2h-1.6v-4.8h4.8v4.8h-1.6v3.2h4.8c0.884 0 1.6 0.716 1.6 1.6v0 3.2h0.8v3.2h-3.2v-3.2h0.8v-3.2z"></path>
</symbol>
</defs>
</svg>
